<svg id="Layer_1" data-name="Layer 1" xmlns="http://www.w3.org/2000/svg" viewBox="0 0 117.06 30"><defs><style>.cls-1{fill:#fff;}</style></defs><title>wordmark</title><polygon class="cls-1" points="0 5.43 7.96 5.43 7.96 29.68 13.59 29.68 13.59 5.43 21.75 5.43 21.75 0.24 0 0.24 0 5.43"/><path class="cls-1" d="M42,17.69a5.44,5.44,0,0,0,1.17-.76q2.37-1.85,2.37-7.52,0-4.87-2.29-7.2-1.89-2-5.75-2H24.65V29.68h5.63V18.6h5l4.84,11.08h6.35L40.86,18.1Q41.62,17.86,42,17.69Zm-2.79-4.95a2.74,2.74,0,0,1-2.23.81H30.32V5.23H37a2.61,2.61,0,0,1,2.17.9,5.63,5.63,0,0,1,.72,3.36A5.49,5.49,0,0,1,39.23,12.75Z"/><path class="cls-1" d="M53.5,0.48a7.17,7.17,0,0,0-2,.84q-2.17,1.37-2.17,5V23.89A5.71,5.71,0,0,0,51,28.35a5.76,5.76,0,0,0,1.69,1,6.49,6.49,0,0,0,1.65.42q0.68,0.06,1.11.06H68.68V24.49H57.46a4.54,4.54,0,0,1-1.65-.24Q55,23.93,55,22.4V17.81h11.9V12.43H56.14l-1.17,0V7.8a4,4,0,0,1,.24-1.53,1.89,1.89,0,0,1,1.85-.72H68.68V0.24H55.07A6.94,6.94,0,0,0,53.5.48Z"/><polygon class="cls-1" points="87.5 0.24 80.02 12.55 77.65 12.55 77.65 0.24 72.26 0.24 72.26 29.68 77.69 29.68 77.69 17.53 80.02 17.53 87.5 29.68 94.06 29.68 85.05 15 94.06 0.24 87.5 0.24"/><path class="cls-1" d="M116.26,16q-1.57-3.66-6.15-3.66h-4.66a4,4,0,0,1-2.45-.56,2.86,2.86,0,0,1-.68-2.25V8q0-1.89.84-2.37a5.28,5.28,0,0,1,2.42-.47H116V0H104.63A9.43,9.43,0,0,0,99,1.61q-2.29,1.77-2.29,6v2.53q0,7.8,7.6,7.8h4.5a3.74,3.74,0,0,1,1.33.2q1.33,0.48,1.33,2.57v1.57a2.08,2.08,0,0,1-1.21,2.13,4.49,4.49,0,0,1-1.11.32H97.57v0.76h0v3.31h0V30h11.55a10.37,10.37,0,0,0,4.36-.88q3.58-1.65,3.58-7v-2A10.3,10.3,0,0,0,116.26,16Z"/></svg>